<mxfile host="app.diagrams.net" agent="Mozilla/5.0 (Windows NT 10.0; Win64; x64) AppleWebKit/537.36 (KHTML, like Gecko) Chrome/132.0.0.0 Safari/537.36 OPR/117.0.0.0" version="26.2.9">
  <diagram name="Página-1" id="Oe8xrQmUW54_YrKIIAXH">
    <mxGraphModel grid="1" page="1" gridSize="10" guides="1" tooltips="1" connect="1" arrows="1" fold="1" pageScale="1" pageWidth="850" pageHeight="1100" math="0" shadow="0">
      <root>
        <mxCell id="0" />
        <mxCell id="1" parent="0" />
        <mxCell id="4HLrIoGxMnMFkCuht1IZ-1" value="Banco de dados e auditoria" style="swimlane;childLayout=stackLayout;resizeParent=1;resizeParentMax=0;startSize=20;html=1;" vertex="1" parent="1">
          <mxGeometry x="90" y="70" width="670" height="1000" as="geometry" />
        </mxCell>
        <mxCell id="4HLrIoGxMnMFkCuht1IZ-2" value="Drone" style="swimlane;startSize=20;html=1;" vertex="1" parent="4HLrIoGxMnMFkCuht1IZ-1">
          <mxGeometry y="20" width="170" height="980" as="geometry" />
        </mxCell>
        <mxCell id="4HLrIoGxMnMFkCuht1IZ-8" style="edgeStyle=orthogonalEdgeStyle;rounded=0;orthogonalLoop=1;jettySize=auto;html=1;exitX=0.5;exitY=1;exitDx=0;exitDy=0;entryX=0.5;entryY=0;entryDx=0;entryDy=0;" edge="1" parent="4HLrIoGxMnMFkCuht1IZ-2" source="4HLrIoGxMnMFkCuht1IZ-6" target="4HLrIoGxMnMFkCuht1IZ-7">
          <mxGeometry relative="1" as="geometry" />
        </mxCell>
        <mxCell id="4HLrIoGxMnMFkCuht1IZ-6" value="Iniciar missão" style="rounded=1;whiteSpace=wrap;html=1;" vertex="1" parent="4HLrIoGxMnMFkCuht1IZ-2">
          <mxGeometry x="24.999999999999545" y="60" width="120" height="60" as="geometry" />
        </mxCell>
        <mxCell id="4HLrIoGxMnMFkCuht1IZ-29" style="edgeStyle=orthogonalEdgeStyle;rounded=0;orthogonalLoop=1;jettySize=auto;html=1;exitX=0.5;exitY=1;exitDx=0;exitDy=0;entryX=0.5;entryY=0;entryDx=0;entryDy=0;" edge="1" parent="4HLrIoGxMnMFkCuht1IZ-2" source="4HLrIoGxMnMFkCuht1IZ-7" target="4HLrIoGxMnMFkCuht1IZ-28">
          <mxGeometry relative="1" as="geometry" />
        </mxCell>
        <mxCell id="4HLrIoGxMnMFkCuht1IZ-7" value="Armazenar dados da missão" style="rounded=1;whiteSpace=wrap;html=1;" vertex="1" parent="4HLrIoGxMnMFkCuht1IZ-2">
          <mxGeometry x="24.999999999999545" y="170" width="120" height="60" as="geometry" />
        </mxCell>
        <mxCell id="4HLrIoGxMnMFkCuht1IZ-28" value="Enviar dados para o sistema de banco de dados" style="rounded=1;whiteSpace=wrap;html=1;" vertex="1" parent="4HLrIoGxMnMFkCuht1IZ-2">
          <mxGeometry x="25" y="280" width="120" height="60" as="geometry" />
        </mxCell>
        <mxCell id="4HLrIoGxMnMFkCuht1IZ-3" value="&lt;font&gt;Sistema de banco de dados&lt;/font&gt;" style="swimlane;startSize=20;html=1;" vertex="1" parent="4HLrIoGxMnMFkCuht1IZ-1">
          <mxGeometry x="170" y="20" width="170" height="980" as="geometry" />
        </mxCell>
        <mxCell id="4HLrIoGxMnMFkCuht1IZ-12" style="edgeStyle=orthogonalEdgeStyle;rounded=0;orthogonalLoop=1;jettySize=auto;html=1;exitX=0.5;exitY=1;exitDx=0;exitDy=0;entryX=0.5;entryY=0;entryDx=0;entryDy=0;" edge="1" parent="4HLrIoGxMnMFkCuht1IZ-3" source="4HLrIoGxMnMFkCuht1IZ-9" target="4HLrIoGxMnMFkCuht1IZ-11">
          <mxGeometry relative="1" as="geometry" />
        </mxCell>
        <mxCell id="4HLrIoGxMnMFkCuht1IZ-9" value="Receber dados em tempo real" style="rounded=1;whiteSpace=wrap;html=1;" vertex="1" parent="4HLrIoGxMnMFkCuht1IZ-3">
          <mxGeometry x="30" y="170" width="120" height="60" as="geometry" />
        </mxCell>
        <mxCell id="4HLrIoGxMnMFkCuht1IZ-14" style="edgeStyle=orthogonalEdgeStyle;rounded=0;orthogonalLoop=1;jettySize=auto;html=1;exitX=0.5;exitY=1;exitDx=0;exitDy=0;entryX=0.5;entryY=0;entryDx=0;entryDy=0;" edge="1" parent="4HLrIoGxMnMFkCuht1IZ-3" source="4HLrIoGxMnMFkCuht1IZ-11" target="4HLrIoGxMnMFkCuht1IZ-13">
          <mxGeometry relative="1" as="geometry" />
        </mxCell>
        <mxCell id="4HLrIoGxMnMFkCuht1IZ-11" value="Armazenar dados em tempo real" style="rounded=1;whiteSpace=wrap;html=1;" vertex="1" parent="4HLrIoGxMnMFkCuht1IZ-3">
          <mxGeometry x="30" y="270" width="120" height="60" as="geometry" />
        </mxCell>
        <mxCell id="4HLrIoGxMnMFkCuht1IZ-13" value="Gerar logs da missão" style="rounded=1;whiteSpace=wrap;html=1;" vertex="1" parent="4HLrIoGxMnMFkCuht1IZ-3">
          <mxGeometry x="30" y="370" width="120" height="60" as="geometry" />
        </mxCell>
        <mxCell id="4HLrIoGxMnMFkCuht1IZ-19" value="Armazenar logs e dados criptografados" style="rounded=1;whiteSpace=wrap;html=1;" vertex="1" parent="4HLrIoGxMnMFkCuht1IZ-3">
          <mxGeometry x="30" y="470" width="120" height="60" as="geometry" />
        </mxCell>
        <mxCell id="4HLrIoGxMnMFkCuht1IZ-16" style="edgeStyle=orthogonalEdgeStyle;rounded=0;orthogonalLoop=1;jettySize=auto;html=1;exitX=1;exitY=0.5;exitDx=0;exitDy=0;entryX=0;entryY=0.5;entryDx=0;entryDy=0;" edge="1" parent="4HLrIoGxMnMFkCuht1IZ-1" source="4HLrIoGxMnMFkCuht1IZ-13" target="4HLrIoGxMnMFkCuht1IZ-15">
          <mxGeometry relative="1" as="geometry" />
        </mxCell>
        <mxCell id="4HLrIoGxMnMFkCuht1IZ-20" style="edgeStyle=orthogonalEdgeStyle;rounded=0;orthogonalLoop=1;jettySize=auto;html=1;exitX=0;exitY=0.5;exitDx=0;exitDy=0;entryX=1;entryY=0.5;entryDx=0;entryDy=0;" edge="1" parent="4HLrIoGxMnMFkCuht1IZ-1" source="4HLrIoGxMnMFkCuht1IZ-17" target="4HLrIoGxMnMFkCuht1IZ-19">
          <mxGeometry relative="1" as="geometry" />
        </mxCell>
        <mxCell id="4HLrIoGxMnMFkCuht1IZ-22" style="edgeStyle=orthogonalEdgeStyle;rounded=0;orthogonalLoop=1;jettySize=auto;html=1;exitX=0.5;exitY=1;exitDx=0;exitDy=0;entryX=0;entryY=0.5;entryDx=0;entryDy=0;" edge="1" parent="4HLrIoGxMnMFkCuht1IZ-1" source="4HLrIoGxMnMFkCuht1IZ-19" target="4HLrIoGxMnMFkCuht1IZ-21">
          <mxGeometry relative="1" as="geometry" />
        </mxCell>
        <mxCell id="4HLrIoGxMnMFkCuht1IZ-4" value="Sistema de auditoria" style="swimlane;startSize=20;html=1;" vertex="1" parent="4HLrIoGxMnMFkCuht1IZ-1">
          <mxGeometry x="340" y="20" width="170" height="980" as="geometry" />
        </mxCell>
        <mxCell id="4HLrIoGxMnMFkCuht1IZ-18" style="edgeStyle=orthogonalEdgeStyle;rounded=0;orthogonalLoop=1;jettySize=auto;html=1;exitX=0.5;exitY=1;exitDx=0;exitDy=0;entryX=0.5;entryY=0;entryDx=0;entryDy=0;" edge="1" parent="4HLrIoGxMnMFkCuht1IZ-4" source="4HLrIoGxMnMFkCuht1IZ-15" target="4HLrIoGxMnMFkCuht1IZ-17">
          <mxGeometry relative="1" as="geometry" />
        </mxCell>
        <mxCell id="4HLrIoGxMnMFkCuht1IZ-15" value="Proteger logs e dados com criptografia" style="rounded=1;whiteSpace=wrap;html=1;" vertex="1" parent="4HLrIoGxMnMFkCuht1IZ-4">
          <mxGeometry x="25" y="370" width="120" height="60" as="geometry" />
        </mxCell>
        <mxCell id="4HLrIoGxMnMFkCuht1IZ-17" value="Adicionar assinaturas digitais" style="rounded=1;whiteSpace=wrap;html=1;" vertex="1" parent="4HLrIoGxMnMFkCuht1IZ-4">
          <mxGeometry x="25" y="470" width="120" height="60" as="geometry" />
        </mxCell>
        <mxCell id="4HLrIoGxMnMFkCuht1IZ-32" style="edgeStyle=orthogonalEdgeStyle;rounded=0;orthogonalLoop=1;jettySize=auto;html=1;exitX=0.5;exitY=1;exitDx=0;exitDy=0;entryX=0.5;entryY=0;entryDx=0;entryDy=0;" edge="1" parent="4HLrIoGxMnMFkCuht1IZ-4" source="4HLrIoGxMnMFkCuht1IZ-23" target="4HLrIoGxMnMFkCuht1IZ-31">
          <mxGeometry relative="1" as="geometry" />
        </mxCell>
        <mxCell id="4HLrIoGxMnMFkCuht1IZ-23" value="Verificar autenticidade dos dados e logs" style="rounded=1;whiteSpace=wrap;html=1;" vertex="1" parent="4HLrIoGxMnMFkCuht1IZ-4">
          <mxGeometry x="25" y="620" width="120" height="60" as="geometry" />
        </mxCell>
        <mxCell id="4HLrIoGxMnMFkCuht1IZ-39" style="edgeStyle=orthogonalEdgeStyle;rounded=0;orthogonalLoop=1;jettySize=auto;html=1;exitX=0.5;exitY=1;exitDx=0;exitDy=0;entryX=0.5;entryY=0;entryDx=0;entryDy=0;" edge="1" parent="4HLrIoGxMnMFkCuht1IZ-4" source="4HLrIoGxMnMFkCuht1IZ-31" target="4HLrIoGxMnMFkCuht1IZ-35">
          <mxGeometry relative="1" as="geometry" />
        </mxCell>
        <mxCell id="4HLrIoGxMnMFkCuht1IZ-43" style="edgeStyle=orthogonalEdgeStyle;rounded=0;orthogonalLoop=1;jettySize=auto;html=1;exitX=0;exitY=0.5;exitDx=0;exitDy=0;entryX=0.25;entryY=0;entryDx=0;entryDy=0;" edge="1" parent="4HLrIoGxMnMFkCuht1IZ-4" source="4HLrIoGxMnMFkCuht1IZ-31" target="4HLrIoGxMnMFkCuht1IZ-41">
          <mxGeometry relative="1" as="geometry" />
        </mxCell>
        <mxCell id="4HLrIoGxMnMFkCuht1IZ-31" value="" style="rhombus;whiteSpace=wrap;html=1;" vertex="1" parent="4HLrIoGxMnMFkCuht1IZ-4">
          <mxGeometry x="100" y="700" width="30" height="30" as="geometry" />
        </mxCell>
        <mxCell id="4HLrIoGxMnMFkCuht1IZ-35" value="" style="ellipse;html=1;shape=endState;fillColor=#000000;strokeColor=#ff0000;" vertex="1" parent="4HLrIoGxMnMFkCuht1IZ-4">
          <mxGeometry x="100" y="780" width="30" height="30" as="geometry" />
        </mxCell>
        <mxCell id="4HLrIoGxMnMFkCuht1IZ-36" value="São verídicos" style="text;html=1;align=center;verticalAlign=middle;whiteSpace=wrap;rounded=0;" vertex="1" parent="4HLrIoGxMnMFkCuht1IZ-4">
          <mxGeometry x="113" y="730" width="60" height="30" as="geometry" />
        </mxCell>
        <mxCell id="4HLrIoGxMnMFkCuht1IZ-46" style="edgeStyle=orthogonalEdgeStyle;rounded=0;orthogonalLoop=1;jettySize=auto;html=1;exitX=0.5;exitY=1;exitDx=0;exitDy=0;entryX=0.5;entryY=0;entryDx=0;entryDy=0;" edge="1" parent="4HLrIoGxMnMFkCuht1IZ-4" source="4HLrIoGxMnMFkCuht1IZ-41" target="4HLrIoGxMnMFkCuht1IZ-45">
          <mxGeometry relative="1" as="geometry" />
        </mxCell>
        <mxCell id="4HLrIoGxMnMFkCuht1IZ-41" value="Excluir dados e logs" style="rounded=1;whiteSpace=wrap;html=1;" vertex="1" parent="4HLrIoGxMnMFkCuht1IZ-4">
          <mxGeometry x="25" y="820" width="120" height="60" as="geometry" />
        </mxCell>
        <mxCell id="4HLrIoGxMnMFkCuht1IZ-44" value="Foram alterados" style="text;html=1;align=center;verticalAlign=middle;whiteSpace=wrap;rounded=0;" vertex="1" parent="4HLrIoGxMnMFkCuht1IZ-4">
          <mxGeometry x="53" y="720" width="60" height="30" as="geometry" />
        </mxCell>
        <mxCell id="4HLrIoGxMnMFkCuht1IZ-45" value="" style="ellipse;html=1;shape=endState;fillColor=#000000;strokeColor=#ff0000;" vertex="1" parent="4HLrIoGxMnMFkCuht1IZ-4">
          <mxGeometry x="71" y="930" width="30" height="30" as="geometry" />
        </mxCell>
        <mxCell id="4HLrIoGxMnMFkCuht1IZ-24" style="edgeStyle=orthogonalEdgeStyle;rounded=0;orthogonalLoop=1;jettySize=auto;html=1;exitX=0.5;exitY=1;exitDx=0;exitDy=0;entryX=1;entryY=0.5;entryDx=0;entryDy=0;" edge="1" parent="4HLrIoGxMnMFkCuht1IZ-1" source="4HLrIoGxMnMFkCuht1IZ-21" target="4HLrIoGxMnMFkCuht1IZ-23">
          <mxGeometry relative="1" as="geometry" />
        </mxCell>
        <mxCell id="4HLrIoGxMnMFkCuht1IZ-5" value="Central de controle" style="swimlane;startSize=20;html=1;" vertex="1" parent="4HLrIoGxMnMFkCuht1IZ-1">
          <mxGeometry x="510" y="20" width="160" height="980" as="geometry" />
        </mxCell>
        <mxCell id="4HLrIoGxMnMFkCuht1IZ-21" value="Acessar dados e logs" style="rounded=1;whiteSpace=wrap;html=1;" vertex="1" parent="4HLrIoGxMnMFkCuht1IZ-5">
          <mxGeometry x="20" y="540" width="120" height="60" as="geometry" />
        </mxCell>
        <mxCell id="4HLrIoGxMnMFkCuht1IZ-30" style="edgeStyle=orthogonalEdgeStyle;rounded=0;orthogonalLoop=1;jettySize=auto;html=1;exitX=1;exitY=0.5;exitDx=0;exitDy=0;entryX=0;entryY=0.5;entryDx=0;entryDy=0;" edge="1" parent="4HLrIoGxMnMFkCuht1IZ-1" source="4HLrIoGxMnMFkCuht1IZ-28" target="4HLrIoGxMnMFkCuht1IZ-9">
          <mxGeometry relative="1" as="geometry">
            <Array as="points">
              <mxPoint x="180" y="330" />
              <mxPoint x="180" y="220" />
            </Array>
          </mxGeometry>
        </mxCell>
      </root>
    </mxGraphModel>
  </diagram>
</mxfile>
